{"title":"Litex - Beroe 11-08-2010 Super Cup","uid":5757275,"size":2975309824,"categoryP":"other","categoryS":"other","magnet":"?xt=urn:btih:98ff7fb3d4d7d6f0583d812404fa73afd0322be1&amp;dn=Litex+-+Beroe+11-08-2010+Super+Cup&amp;tr=udp%3A%2F%2Ftracker.openbittorrent.com%3A80&amp;tr=udp%3A%2F%2Fopen.demonii.com%3A1337&amp;tr=udp%3A%2F%2Ftracker.coppersurfer.tk%3A6969&amp;tr=udp%3A%2F%2Fexodus.desync.com%3A6969","seeders":0,"leechers":0,"uploader":"spiralkinda","files":1,"time":1281607321,"description":"Format                           : AVI\nFormat/Info                      : Audio Video Interleave\nFormat profile                   : OpenDML\nFile size                        : 2.77 GiB\nDuration                         : 2h 14mn\nOverall bit rate                 : 2 939 Kbps\nWriting library                  : Boilsoft Joiner build 2411/release\n\nVideo\nID                               : 0\nFormat                           : MPEG-4 Visual\nFormat settings, BVOP            : Yes\nFormat settings, QPel            : No\nFormat settings, GMC             : No warppoints\nFormat settings, Matrix          : Default (H.263)\nMuxing mode                      : Packed bitstream\nCodec ID                         : DX50\nCodec ID/Hint                    : DivX 5\nDuration                         : 2h 14mn\nBit rate                         : 2 800 Kbps\nWidth                            : 720 pixels\nHeight                           : 404 pixels\nDisplay aspect ratio             : 16:9\nFrame rate                       : 25.000 fps\nResolution                       : 24 bits\nColorimetry                      : 4:2:0\nScan type                        : Progressive\nBits/(Pixel*Frame)               : 0.385\nStream size                      : 2.64 GiB (95%)\nWriting library                  : DivX 6.8.5 (UTC 2009-08-20)\n\nAudio\nID                               : 1\nFormat                           : AC-3\nFormat/Info                      : Audio Coding 3\nCodec ID                         : 2000\nDuration                         : 2h 14mn\nBit rate mode                    : Constant\nBit rate                         : 128 Kbps\nChannel(s)                       : 2 channels\nChannel positions                : L R\nSampling rate                    : 48.0 KHz\nStream size                      : 124 MiB (4%)\nAlignment                        : Aligned on interleaves\nInterleave, duration             : 40 ms (1.00 video frame)\nInterleave, preload duration     : 480 ms\n","torrent":{"xt":"urn:btih:98ff7fb3d4d7d6f0583d812404fa73afd0322be1","amp;dn":"Litex+-+Beroe+11-08-2010+Super+Cup","amp;tr":["udp%3A%2F%2Ftracker.openbittorrent.com%3A80","udp%3A%2F%2Fopen.demonii.com%3A1337","udp%3A%2F%2Ftracker.coppersurfer.tk%3A6969","udp%3A%2F%2Fexodus.desync.com%3A6969"],"infoHash":"98ff7fb3d4d7d6f0583d812404fa73afd0322be1","infoHashBuffer":{"type":"Buffer","data":[152,255,127,179,212,215,214,240,88,61,129,36,4,250,115,175,208,50,43,225]},"announce":[],"urlList":[]}}